<svg width="48" height="48" viewBox="0 0 48 48" fill="none" xmlns="http://www.w3.org/2000/svg">
<rect width="48" height="48" fill="#7AE0DC"/>
<path d="M11.9438 24.7185C12.1935 24.7659 12.184 24.7628 12.2441 24.513C12.4496 23.6562 12.6646 22.7994 12.8701 21.9426C13.1578 20.7507 13.455 19.5619 13.7206 18.3668C13.7743 18.1234 13.8534 17.8863 13.9071 17.6428C13.9735 17.3393 14.1759 17.1401 14.4256 17.0168C14.7734 16.8429 15.1243 16.6153 15.5448 16.7007C15.8578 16.7639 16.1772 16.8366 16.4649 16.9631C16.5787 17.0137 16.6862 17.2255 16.6893 17.3646C16.6925 17.7282 16.6356 18.0949 16.6071 18.4585C16.585 18.7399 16.5692 19.0213 16.5534 19.3027C16.5281 19.799 16.506 20.2954 16.4838 20.7918C16.4712 21.0985 16.4522 21.4051 16.4459 21.7086C16.4301 22.4137 16.4238 23.1187 16.4048 23.8238C16.3827 24.611 16.3574 25.3983 16.3289 26.1855C16.31 26.704 16.2783 27.2257 16.2657 27.7442C16.2467 28.5314 16.2372 29.3155 16.2214 30.1027C16.2214 30.2197 16.2056 30.3367 16.1772 30.4473C16.1645 30.4979 16.1139 30.558 16.0665 30.5801C15.6871 30.7351 15.3077 30.8931 14.922 31.0228C14.7481 31.0797 14.5521 31.0797 14.3656 31.0986C14.3371 31.0986 14.2992 31.0765 14.2707 31.0544C14.0589 30.8773 13.9293 30.656 13.9387 30.3746C13.9609 29.6348 13.9862 28.895 14.0115 28.1552C14.0241 27.8137 14.0399 27.4691 14.0462 27.1277C14.0557 26.5775 14.0526 26.0274 14.0715 25.4773C14.0937 24.8323 14.1379 24.1874 14.1569 23.5424C14.179 22.8373 14.1853 22.1323 14.1917 21.4273C14.1917 21.3451 14.179 21.2471 14.1348 21.1838C14.0968 21.1301 13.9988 21.0826 13.9387 21.0953C13.8818 21.1079 13.8091 21.1901 13.7933 21.2534C13.67 21.7592 13.572 22.2683 13.4455 22.7741C13.2369 23.6056 13.0124 24.434 12.7911 25.2623C12.6867 25.648 12.5571 26.0306 12.2947 26.3404C12.1967 26.4542 12.0607 26.5744 11.9216 26.6091C11.6624 26.6724 11.4885 26.4827 11.4316 26.1412C11.3241 25.5279 11.2134 24.9114 11.0965 24.3012C10.9415 23.5044 10.7835 22.7077 10.6127 21.9142C10.5179 21.4715 10.4009 21.0321 10.2902 20.5926C10.2681 20.4978 10.0721 20.4377 9.98989 20.5167C9.92349 20.5831 9.85394 20.6811 9.84761 20.7696C9.81916 21.1554 9.80335 21.5411 9.80019 21.93C9.78754 23.1946 9.7749 24.4624 9.77174 25.7271C9.77174 26.4321 9.80019 27.1371 9.80335 27.8422C9.80335 28.2469 9.7749 28.6484 9.76857 29.0531C9.76225 29.4799 9.76857 29.9099 9.76541 30.3367C9.76541 30.4505 9.74328 30.5675 9.72431 30.6813C9.69269 30.8457 9.55991 30.9153 9.41763 30.9279C8.96236 30.9753 8.51025 30.9785 8.05182 30.9058C7.84631 30.871 7.75146 30.754 7.68507 30.5959C7.54912 30.2766 7.58074 29.9383 7.61552 29.6C7.61868 29.5589 7.63132 29.5147 7.63132 29.4736C7.64397 28.4049 7.65978 27.3363 7.66926 26.2709C7.68191 24.7975 7.68507 23.3242 7.71036 21.8509C7.72301 21.1901 7.76411 20.5325 7.82102 19.8749C7.87477 19.2331 7.96329 18.5945 8.04233 17.9558C8.06446 17.7819 8.08976 17.6017 8.15615 17.4405C8.19409 17.3488 8.30475 17.2381 8.39327 17.2255C8.77267 17.1686 9.15838 17.1338 9.54094 17.1117C9.63579 17.1053 9.76225 17.1591 9.82548 17.2286C10.11 17.5448 10.3029 17.9116 10.4199 18.3257C10.5779 18.879 10.7898 19.4196 10.9226 19.9792C11.1755 21.0447 11.3873 22.1228 11.615 23.1946C11.7225 23.7005 11.8331 24.2095 11.9438 24.7217V24.7185Z" fill="white"/>
<path d="M41.3026 17.0895C41.8179 17.1938 41.7958 17.5068 41.7673 17.9337C41.7326 18.4332 41.6693 18.9327 41.6535 19.4323C41.6346 19.9856 41.6535 20.5388 41.6472 21.0921C41.6409 22.616 41.6124 24.1399 41.6282 25.6606C41.6377 26.6818 41.7104 27.703 42.0614 28.6768C42.0835 28.7337 42.0993 28.797 42.1309 28.8476C42.3712 29.2269 42.5325 29.3376 42.9751 29.1321C43.6675 28.8159 44.1006 28.2879 44.2397 27.545C44.382 26.8083 44.499 26.0653 44.6065 25.3224C44.695 24.7185 44.7582 24.1083 44.8215 23.5013C44.8626 23.1124 44.872 22.7203 44.9037 22.3315C44.9416 21.8762 44.9859 21.4209 45.0301 20.9657C45.0365 20.8993 45.0459 20.8329 45.0459 20.7633C45.0586 20.1183 45.0744 19.4734 45.0839 18.8316C45.0902 18.4775 45.0902 18.1234 45.0776 17.7724C45.0649 17.3709 45.2103 17.0642 45.5613 16.8556C45.7067 16.7702 45.849 16.7449 46.0134 16.786C46.2252 16.8397 46.4402 16.8682 46.652 16.9156C47.0188 16.9978 47.5531 17.4373 47.5183 17.9463C47.4867 18.4458 47.4962 18.9517 47.4741 19.4512C47.4488 20.0235 47.4013 20.5989 47.3666 21.1712C47.3476 21.4873 47.3539 21.8066 47.3286 22.1228C47.2907 22.5717 47.2338 23.0175 47.1927 23.4665C47.1674 23.7289 47.1705 23.9913 47.1453 24.2537C47.0757 25.0062 46.9903 25.7587 46.9303 26.5143C46.8733 27.2478 46.6931 27.9465 46.4339 28.6294C46.2442 29.1321 46.0924 29.6632 45.8174 30.1185C45.3621 30.8678 44.7582 31.5001 43.835 31.6677C42.9466 31.829 42.3617 31.5697 41.8717 30.7635C41.3342 29.8782 41.0939 28.9076 41.0591 27.8769C41.0339 27.096 40.9706 26.3151 40.9232 25.5342C40.9232 25.5215 40.9232 25.5089 40.9232 25.4962C40.9105 24.9556 40.8853 24.4181 40.8853 23.8775C40.8853 22.9764 40.8916 22.0722 40.9232 21.1712C40.9516 20.3238 41.018 19.4734 41.0686 18.6261C41.0908 18.2309 41.1066 17.8325 41.1477 17.4405C41.1603 17.3171 41.2488 17.2002 41.3026 17.0832V17.0895Z" fill="white"/>
<path d="M20.3539 27.4469C20.3286 28.1551 20.3064 28.8664 20.2748 29.5746C20.259 29.9698 20.2306 30.3682 20.1958 30.7634C20.1895 30.833 20.1326 30.9183 20.0725 30.9563C19.5919 31.2503 19.0355 31.3135 18.5012 31.4495C18.3873 31.4779 18.3115 31.4305 18.2324 31.342C17.8625 30.9183 17.8783 30.4251 17.9416 29.9161C17.9795 29.6063 18.0048 29.2964 18.0269 28.9866C18.068 28.3827 18.0996 27.7789 18.1407 27.175C18.1882 26.4446 18.2356 25.7112 18.2893 24.9808C18.3336 24.3864 18.3873 23.7889 18.4348 23.1945C18.4854 22.5306 18.5517 21.8698 18.5802 21.2059C18.6213 20.2985 18.6403 19.3911 18.6498 18.4869C18.6498 18.3478 18.5802 18.1897 18.4948 18.0759C18.3336 17.8577 18.381 17.6301 18.6434 17.5637C19.007 17.4688 19.3738 17.3866 19.7405 17.2981C19.9713 17.2412 20.2021 17.178 20.4361 17.1369C21.1032 17.023 21.7734 16.9472 22.4469 17.0009C23.2025 17.061 23.8 17.374 24.1478 18.1075C24.3786 18.5944 24.4102 19.0907 24.4071 19.6092C24.4007 20.6083 23.9613 21.4303 23.3416 22.1607C23.0539 22.499 22.7946 22.8657 22.4974 23.1977C22.4437 23.2577 22.3994 23.3368 22.333 23.3716C22.0611 23.5075 22.1054 23.7541 22.137 23.9723C22.1876 24.3074 22.2793 24.6362 22.352 24.9713C22.4437 25.3982 22.5259 25.8281 22.6207 26.255C22.7567 26.8588 22.8958 27.4595 23.0507 28.0602C23.2657 28.9012 23.4902 29.7422 23.7178 30.58C23.8032 30.8962 23.6894 31.2345 23.4206 31.4274C23.3195 31.5001 23.2341 31.5001 23.1392 31.4179C22.9401 31.2408 22.8136 31.0227 22.7567 30.7634C22.5133 29.6505 22.2698 28.5408 22.0264 27.4279C21.9094 26.8968 21.8082 26.3593 21.6817 25.8313C21.5837 25.4203 21.4604 25.0156 21.3435 24.6109C21.3024 24.4718 21.0747 24.4339 20.9166 24.5319C20.6321 24.7058 20.4961 24.9745 20.474 25.297C20.4234 26.0178 20.3886 26.7387 20.3475 27.4595C20.3507 27.4595 20.357 27.4595 20.3602 27.4595L20.3539 27.4469ZM23.6672 18.9896C23.6672 18.9169 23.6704 18.841 23.6672 18.7683C23.6388 18.1865 23.2752 17.7787 22.7504 17.7692C22.1781 17.7565 21.609 17.7692 21.0368 17.7692C20.8755 17.7692 20.8566 17.8451 20.8819 17.981C20.9103 18.1296 20.9451 18.2814 20.9388 18.4331C20.9103 19.0465 20.8661 19.6567 20.8313 20.27C20.8313 20.2763 20.8313 20.2827 20.8313 20.289C20.7965 20.7443 20.7617 21.2027 20.7269 21.658C20.7111 21.854 20.6953 22.0468 20.6795 22.2429C20.6574 22.5148 20.6163 22.7898 20.6258 23.0617C20.6289 23.1661 20.7396 23.283 20.8313 23.3589C20.8661 23.3874 20.9925 23.321 21.0652 23.2736C21.1538 23.2198 21.236 23.1503 21.3024 23.0712C21.8272 22.48 22.3552 21.8919 22.8674 21.2912C23.4301 20.6336 23.6356 19.84 23.6704 18.9927L23.6672 18.9896Z" fill="white"/>
<path d="M37.3474 22.7456C37.8311 22.8531 38.3528 22.8215 38.7733 23.1471C39.08 23.3842 39.2633 23.7067 39.4056 24.0577C39.5542 24.4212 39.7376 24.7753 39.7028 25.1832C39.6333 26.0147 39.4625 26.8209 39.0737 27.5639C38.8049 28.0792 38.454 28.5408 38.0619 28.974C37.4802 29.6158 36.7657 30.071 36.0037 30.4568C35.5832 30.6686 35.1501 30.8615 34.7138 31.0448C34.287 31.225 33.6989 31.0385 33.4365 30.6559C33.2911 30.4473 33.3164 30.207 33.3258 29.973C33.3416 29.6126 33.3764 29.2522 33.3827 28.8918C33.3922 28.0919 33.3986 27.2952 33.3891 26.4953C33.3796 25.7744 33.3448 25.0504 33.3227 24.3296C33.3037 23.7415 33.2721 23.1534 33.2626 22.5654C33.2405 21.2818 33.2342 19.9981 33.2152 18.7145C33.2152 18.5501 33.1962 18.3857 33.1772 18.2213C33.133 17.8451 33.4491 17.4246 33.8285 17.3614C34.0498 17.3234 34.2743 17.276 34.4956 17.2602C34.7865 17.2412 35.0805 17.2349 35.3714 17.2475C36.0512 17.276 36.7341 17.3076 37.4138 17.3645C37.9892 17.412 38.5488 17.9842 38.6721 18.5533C38.8523 19.369 38.6532 20.1025 38.1947 20.7633C37.8311 21.2912 37.4043 21.7781 37.0123 22.2872C36.9396 22.382 36.8921 22.5021 36.8352 22.6096C36.9617 22.6539 37.0882 22.7013 37.2178 22.7393C37.2557 22.7519 37.3031 22.7393 37.3474 22.7393V22.7456ZM35.5358 28.2342C35.5358 28.7242 35.5232 29.0593 35.5421 29.3881C35.5485 29.502 35.6275 29.6253 35.7097 29.7138C35.735 29.7422 35.8804 29.679 35.9595 29.6347C36.576 29.287 37.1198 28.8475 37.5814 28.3069C38.1378 27.6556 38.5962 26.9537 38.7638 26.0937C38.827 25.7649 38.9061 25.433 38.9187 25.101C38.9314 24.7342 38.8239 24.377 38.6595 24.0419C38.5362 23.7889 38.3655 23.5866 38.0904 23.5107C37.8438 23.4443 37.5909 23.4159 37.3411 23.3684C36.8795 23.2799 36.4274 23.3589 35.9753 23.4317C35.6749 23.4791 35.5295 23.6719 35.539 23.9723C35.5548 24.4782 35.6054 24.9809 35.6022 25.4867C35.5927 26.4542 35.5579 27.4248 35.539 28.2342H35.5358ZM35.4663 20.4977H35.4631C35.4631 20.817 35.4631 21.1363 35.4631 21.4557C35.4631 21.7813 35.4568 22.1069 35.4631 22.4326C35.4631 22.499 35.4947 22.5654 35.5137 22.6318C35.5927 22.6033 35.6907 22.597 35.7445 22.5464C36.0037 22.2966 36.2725 22.0532 36.4969 21.7718C36.8953 21.2786 37.2747 20.7633 37.6478 20.2479C37.9702 19.8021 38.0177 19.2836 38.0114 18.7556C38.0082 18.4774 37.7142 18.117 37.4391 18.0664C37.2368 18.0285 37.0313 17.9779 36.8257 17.9526C36.5033 17.9178 36.1808 17.8894 35.8583 17.883C35.5959 17.8767 35.5769 17.902 35.5232 18.1613C35.4915 18.3162 35.4694 18.4774 35.4663 18.6355C35.4599 19.2552 35.4663 19.878 35.4663 20.4977Z" fill="white"/>
<path d="M31.9917 17.4816C31.9 17.8641 31.8178 18.2277 31.7293 18.5881C31.5459 19.3279 31.3594 20.0678 31.176 20.8076C30.9389 21.7656 30.7081 22.7267 30.4742 23.6847C30.3635 24.1431 30.2623 24.6078 30.1485 25.0663C29.9873 25.7112 29.8071 26.3499 29.6553 26.9949C29.415 28.0287 29.1905 29.0689 28.9566 30.1059C28.8775 30.4505 28.7985 30.7983 28.6973 31.1397C28.5962 31.4938 28.4887 31.497 28.1156 31.5128C27.8216 31.5255 27.5275 31.4369 27.2335 31.3927C27.1798 31.3832 27.126 31.3642 27.0723 31.3516C26.5854 31.2472 26.3735 30.9121 26.4968 30.422C26.5854 30.0743 26.6929 29.736 26.7782 29.3882C26.8668 29.0246 26.93 28.6547 27.0154 28.2911C27.205 27.4817 27.3916 26.6724 27.6002 25.8693C27.7014 25.4741 27.7963 25.0789 27.752 24.6711C27.7236 24.4055 27.6603 24.1431 27.5876 23.8838C27.3695 23.0934 27.1387 22.3062 26.9205 21.5126C26.7814 21.0099 26.6771 20.4977 26.5221 20.0014C26.3893 19.5682 26.206 19.1509 26.0447 18.7272C25.9214 18.4016 25.795 18.0728 25.6811 17.744C25.6148 17.5511 25.6369 17.3709 25.8013 17.2223C25.9372 17.099 26.0764 17.0895 26.1744 17.2413C26.3166 17.4658 26.4526 17.7029 26.5506 17.9495C26.7371 18.4142 26.9079 18.8822 27.0565 19.3596C27.2778 20.0741 27.4738 20.7949 27.6793 21.5126C27.7773 21.8541 27.8785 22.1955 27.9607 22.5401C27.9986 22.6919 28.0998 22.6698 28.201 22.6698C28.299 22.6698 28.4096 22.7046 28.4444 22.5496C28.5803 21.9268 28.7226 21.3103 28.8617 20.6874C28.9471 20.3049 29.0325 19.9223 29.1178 19.5398C29.3138 18.6419 29.5067 17.7471 29.7059 16.8492C29.7976 16.4351 29.9462 16.3371 30.373 16.3213C31.0274 16.296 31.4606 16.6785 31.8621 17.1117C31.9443 17.2002 31.9506 17.3583 31.9886 17.4752L31.9917 17.4816Z" fill="white"/>
<path d="M3.60668 26.0937C3.54977 26.6407 3.4897 27.1876 3.43279 27.7346C3.36955 28.3479 3.30948 28.9613 3.24625 29.5746C3.23993 29.6221 3.23361 29.6726 3.22412 29.7201C3.15773 30.0141 3.37588 30.2196 3.67307 30.1722C4.22319 30.0837 4.77331 30.0109 5.32343 29.9414C5.51629 29.9161 5.71231 29.9066 5.90833 29.9034C6.07906 29.9003 6.18339 29.9951 6.19288 30.1627C6.21501 30.5452 6.1581 30.6749 5.7376 30.7191C4.865 30.814 3.99872 30.9721 3.12611 31.0701C2.63606 31.1238 2.13653 31.1143 1.64015 31.1112C1.44097 31.1112 1.27341 30.991 1.15959 30.8235C0.973052 30.5484 0.92879 30.2417 0.979375 29.9098C1.07106 29.3122 1.14694 28.7084 1.21333 28.1076C1.27341 27.567 1.32399 27.0264 1.35561 26.4826C1.38406 25.9988 1.37774 25.5151 1.40303 25.0314C1.42832 24.5034 1.47259 23.9754 1.51053 23.4506C1.52317 23.2451 1.53266 23.0364 1.5453 22.8309C1.5706 22.4515 1.59273 22.0753 1.62118 21.6991C1.66861 21.0161 1.71603 20.3332 1.76029 19.6535C1.76662 19.5681 1.76662 19.4828 1.76978 19.3942C1.79191 18.8568 1.81088 18.3225 1.84566 17.785C1.85514 17.6332 1.9247 17.5068 2.06697 17.4087C2.40842 17.1779 2.79414 17.1337 3.18302 17.1052C3.94813 17.0483 4.71324 17.0041 5.47835 16.9535C5.57004 16.9472 5.65856 16.9219 5.74709 16.906C6.19604 16.827 6.40154 17.0388 6.28772 17.4751C6.22449 17.7249 6.16126 17.7312 5.82297 17.7597C5.42776 17.7945 5.02624 17.7723 4.63104 17.8103C4.44767 17.8292 4.27061 17.9336 4.09673 18.0095C4.07143 18.0221 4.05563 18.0822 4.05246 18.1233C4.04614 18.3794 4.04614 18.6323 4.03666 18.8884C4.03033 19.0591 4.03033 19.2362 3.99872 19.4037C3.87541 20.0613 3.84696 20.7253 3.82483 21.3892C3.8027 21.9994 3.75527 22.6064 3.71733 23.2166C3.71733 23.2293 3.71733 23.2419 3.71733 23.2546C3.71733 23.596 3.76792 23.6308 4.10621 23.5929C4.50774 23.5454 4.90926 23.5138 5.31079 23.4885C5.50997 23.4759 5.56371 23.5581 5.59849 23.8648C5.61746 24.0323 5.56371 24.1367 5.38034 24.1556C4.93455 24.1999 4.48877 24.2568 4.04298 24.2979C3.84064 24.3169 3.66042 24.475 3.64778 24.6868C3.61932 25.1579 3.59403 25.6258 3.56557 26.0969C3.57822 26.0969 3.59087 26.0969 3.60351 26.1L3.60668 26.0937Z" fill="white"/>
</svg>
